<?xml version="1.0" standalone="yes"?>
<svg xmlns="http://www.w3.org/2000/svg" width="1270" height="1000">
<path style="fill:#040405; stroke:none;" d="M0 0L0 1000L1270 1000L1270 0L0 0z"/>
<path style="fill:#f9f9fa; stroke:none;" d="M404 311L388 321L397 302C390.748 299.082 384.343 297.615 378 301L379 298L368 289L359 294L364 285C354.255 271.204 335.136 266.716 321 276.789C314.188 281.644 310.599 289.533 303.985 294.362C296.991 299.469 287.924 297.113 281 301.703C264.922 312.361 262.856 340.336 274.39 354.999C287.304 371.414 299.908 357.82 316 359.093C324.296 359.75 331.439 364.307 340 363.96C348.652 363.609 356.242 358.491 365 359.091C373.911 359.701 381.848 366.006 391 363.362C411.51 357.435 412.731 326.359 404 311M980 389C964.063 441.449 979.762 508.237 938 550C938 532.463 937.173 517.698 926.239 503C919.229 493.577 909.055 486.735 898 483.004C894.681 481.884 889.639 479.646 886.174 481.198C880.048 483.942 872.919 496.141 870 502L869 502L873 480C852.392 482.618 833.49 493.818 824.131 513C810.597 540.739 821.266 586.913 855 595L855 597L838 604C844.433 607.045 852.817 612.251 860 612.697C871.387 613.404 885.766 602.271 896 598.012C939.782 579.789 981.581 543.677 982 493L983 493C985.68 504.277 994.609 514.584 1004 521.096C1036 543.286 1082.39 528.851 1095.56 492C1100.49 478.206 1100.17 462.617 1094.94 449C1093.58 445.472 1090.83 437.64 1086.79 436.447C1081.06 434.755 1068.95 446.245 1064 449L1078 425C1048.09 403.745 1016.32 408.685 991 434L997 392C1054.51 391.993 1074.93 324.039 1037 286L1036 286L1020 306L1025 278C995.208 267.859 963.383 271.566 945.464 301C927.148 331.085 941.304 383.2 980 389z"/>
<path style="fill:#040405; stroke:none;" d="M358 294L357 296L358 294M1019 307L1020 308L1019 307z"/>
<path style="fill:#f9f9fa; stroke:none;" d="M882 335L875 338C879.265 327.227 869.642 330.559 864 324L860 325C860.692 316.76 850.864 313.664 844 315.638C837.673 317.457 835.006 322.885 829.985 326.486C826.646 328.882 822.4 328.516 819.044 330.742C812.782 334.895 811.888 344.233 813.533 351C817.269 366.371 828.967 357.589 839 359.519C847.299 361.115 851.837 359.807 860 359.225C864.499 358.903 868.559 361.824 873 361.282C885.958 359.702 883.802 343.738 882 335z"/>
<path style="fill:#6760e0; stroke:none;" d="M392 318L393 319L392 318z"/>
<path style="fill:#040405; stroke:none;" d="M387 321L388 322L387 321M859 325L860 326L859 325M874 338L875 339L874 338z"/>
<path style="fill:#53c1df; stroke:none;" d="M268 341L269 342L268 341M446 593C403.41 606.618 347.602 623.869 324.312 666C292.061 724.342 360.322 769.837 407 789.424C418.805 794.378 432.125 800.876 445 802C441.408 847.137 423.464 895.204 446.184 939C479.297 1002.83 558.645 962.714 600 930.881C609.313 923.712 619.6 916.178 627 907L628 907C635.247 915.378 644.36 922.639 653 929.551C659.744 934.946 666.814 939.574 674 944.333C705.563 965.232 760.302 991.401 792.829 957.91C830.513 919.109 820.195 848.118 808 801C844.461 792.661 884.332 774.625 911 748C921.508 737.509 931.141 726.655 935.254 712C950.635 657.2 885.282 624.381 845 606.716C833.005 601.456 820.083 595.763 807 594C816.353 548.686 828.447 488.937 801.301 447C766.106 392.629 692.162 433.918 655 463.6C645.455 471.224 634.085 478.949 627 489C599.277 461.506 564.945 436.182 527 425.291C507.494 419.692 485.891 418.357 468 429.468C451.026 440.009 442.505 460.137 438.804 479C431.49 516.283 435.761 556.577 446 593z"/>
<path style="fill:#f9f9fa; stroke:none;" d="M645 508L645 509L682 553L697.465 573.012L724 577.13L781 587C787.566 555.188 793.388 522.461 787.919 490C785.594 476.197 781.165 460.075 769 451.652C758.495 444.378 742.287 447.981 731 451.155C698.815 460.205 668.417 485.067 645 508M472 587L528 577.155L554.91 573.062L571 553L608 509C602.348 500.982 593.601 494.914 586 488.804C566.088 472.797 542.951 457.371 518 450.64C502.749 446.527 484.863 445.745 474.637 460C466.1 471.9 463.952 487.809 462.911 502C460.778 531.099 466.139 558.604 472 587z"/>
<path style="fill:#6760e0; stroke:none;" d="M449 449L450 450L449 449z"/>
<path style="fill:#040405; stroke:none;" d="M1063 449L1064 450L1063 449z"/>
<path style="fill:#f9f9fa; stroke:none;" d="M321 470C315.801 467.448 307.592 468.335 306 475C289.953 471.224 292.476 480.502 297 491L285 484C278.841 497.229 278.518 520.893 296 526.056C303.148 528.167 308.991 523.35 316 523.041C323.625 522.705 330.463 526.659 338 526.659C343.862 526.659 349.204 523.678 354.961 523.043C364.635 521.977 373.811 529.865 383 524.86C396.554 517.479 398.739 494.947 390.351 483.001C383.863 473.761 375.494 476.486 367.039 471.467C357.005 465.511 353.968 454.499 341 452.479C329.91 450.752 315.662 457.865 321 470z"/>
<path style="fill:#040405; stroke:none;" d="M321 470L322 471L321 470z"/>
<path style="fill:#6760e0; stroke:none;" d="M814 485L815 486L814 485z"/>
<path style="fill:#040405; stroke:none;" d="M297 491L299 493L297 491z"/>
<path style="fill:#f9f9fa; stroke:none;" d="M590 572C611.959 566.772 639.421 571 662 571L628 528C614.344 534.369 596.678 558.593 590 572M217 559L216 559L205 543C196.678 546.913 191.962 556.571 189.348 565C179.846 595.64 203.521 625.739 235 626L239 658C220.404 638.23 194.39 635.91 172 651L182 670L164 659C151.519 679.411 151.307 707.195 171.004 723.536C193.495 742.195 235.97 737.285 245 706L246 706C248.535 719.606 250.335 733.124 258.101 745C265.588 756.449 276.84 763.88 288 771.333C308.889 785.285 333.196 799.122 358 805L358 806C336.787 808.742 322.221 824.604 318 845L348 861L348 862L318 861C325.455 896.661 360.074 905.443 390 893C380.992 908.433 376 924.158 376 942L390 942C387.372 928.533 395.514 913.421 401.691 902C413.124 880.861 425.476 855.933 414.687 832C411.652 825.269 407.206 820.155 402 815.004C395.329 808.405 387.317 803.549 379 799.258C368.722 793.956 357.281 788.673 346 786L346 784C351.631 782.374 365.719 775.394 364.963 768.093C364.577 764.367 358.653 761.798 356 759.844C348.188 754.089 340.789 747.499 334.615 740C327.598 731.477 321.669 722.603 318.347 712C317.325 708.736 317.288 698.969 314.397 697.133C310.452 694.628 300.863 701.967 298 704.329C283.528 716.267 280.241 731.314 281 749C260.592 728.578 259.734 702.19 255.728 675C253.224 657.998 249.142 640.199 249 623C257.824 621.672 265.036 615.633 270.699 609C288.679 587.938 283.511 553.71 260 538.951C249.952 532.644 236.639 530.201 225 532.669C221.727 533.363 215.957 534.298 214.067 537.419C211.249 542.072 216.011 553.898 217 559M610 597.424C598.759 598.9 580.181 594.34 570.184 600.028C559.498 606.108 551.023 627.628 544.8 638C536.584 651.694 528.895 665.717 521.753 680C519.291 684.925 514.405 691.427 514.028 697C513.531 704.347 521.942 715.574 525.258 722C533.912 738.767 543.861 754.855 553.601 771C557.914 778.149 562.962 789.144 569.518 794.397C575.411 799.118 591.693 797 599 797C625.362 797 653.787 800.05 679.985 795.852C686.152 794.863 689.903 785.796 692.947 781C702.906 765.306 712.36 749.289 721.306 733C726.273 723.956 739.303 707.355 739.216 697C739.158 690.013 731.025 679.165 727.691 673C717.811 654.731 707.555 636.471 696.308 619C692.836 613.607 688.394 603.301 682.79 600.028C677.542 596.963 666.022 598 660 598C643.48 597.999 626.48 595.26 610 597.424M480 612C481.54 629.635 491.482 650.115 499 666L515.85 636L535 603L480 612M718 603L737.988 638L754 666L774 613C756.949 607.216 735.983 603.772 718 603M453 777L473.8 721L483.142 697L473.8 674L454 619C422.795 625.458 388.389 640.889 364 661.439C354.035 669.836 342.341 682.061 342.054 696C341.763 710.14 352.595 721.811 362 730.985C385.359 753.771 421.424 769.695 453 777M800 775C816.973 773.612 835.931 763.763 851 756.247C873.065 745.241 908.577 725.994 910.24 698C910.951 686.031 902.984 675.986 894.999 668.001C877.403 650.404 853.983 638.713 831 629.811C823.599 626.944 809.2 618.778 801.225 620.411C796.223 621.435 794.409 633.854 792.997 638C788.156 652.208 782.462 666.198 776.573 680C774.432 685.016 769.116 692.409 769.85 698C770.841 705.547 776.847 714.008 779.85 721C787.276 738.292 795.748 756.623 800 775z"/>
<path style="fill:#53c1df; stroke:none;" d="M622 641.425C608.842 643.211 596.838 647.785 587.09 657.174C549.057 693.808 583.163 758.333 634 751.711C642.016 750.666 650.289 747.761 657 743.251C701.732 713.188 678.922 633.699 622 641.425z"/>
<path style="fill:#040405; stroke:none;" d="M182 670L183 671L182 670z"/>
<path style="fill:#6760e0; stroke:none;" d="M946 771C946 791.427 950.633 812.886 942 832C939.682 827.388 938.846 822.163 935.468 818.093C929.02 810.327 916.391 806.298 913 818L912 818L912 811C889.819 817.405 889.159 852.456 914 855L914 856C908.933 858.186 904.333 861.255 900 864.669C896.524 867.408 893.125 870.507 890.39 874C876.266 892.042 894.044 909.365 904 924L874 931L876 942C859.327 942 842.717 941 826 941C820.079 941 810.698 939.221 805.213 941.603C799.916 943.904 796.095 953.74 791.911 957.91C781.59 968.194 766.538 973.877 752 973.545C730.812 973.061 710.377 964.654 692 954.691C684.371 950.556 677.073 943.901 669 940.843C661.657 938.062 650.784 940 643 940C625.123 940 605.719 937.84 588 940.133C578.487 941.365 568.516 951.346 560 955.742C540.527 965.793 520.101 973.106 498 972.999C483.739 972.93 470.003 967.127 460.015 956.996C455.859 952.782 452.686 945.034 447.674 942.028C440.935 937.984 424.776 940.911 417 941.004C359.754 941.685 302.362 944.609 245 946.015C220.609 946.612 193.223 953.476 170 944C177.517 930.804 187.448 920.018 172.996 907.185C170.543 905.007 167.941 903.399 165 902L165 900C173.956 897.667 177.57 885.337 171.75 878C169.659 875.364 164.132 870.826 163 876L162 876L161 872C153.281 873.503 146.96 876.379 146 885C138.797 875.266 143 859.514 143 848C154.714 845.878 159.962 830.31 149.956 822.43C145.081 818.59 137.598 817.505 137 825L136 825L135 821C114.649 830.598 137.869 844.953 138 856C132.019 850.42 125.661 848.313 118 852L119 855C111.999 853.987 110.066 862.368 111.805 868C115.56 880.161 128.2 880.192 137 874C137.699 890.234 150.611 898.641 163 907C156.866 909.093 152.917 911.566 151 918L156 922L150 921C150.942 931.708 157.885 935.971 168 936L155.379 943.862L147.907 951.397L128 953.286L81 961C82.0534 967.61 88.2188 968.255 94 969.246C105.629 971.24 117.337 972.04 129 973.576C180.688 980.382 234.902 981.75 287 982.001C353.597 982.322 420.345 986.678 487 986.999C586.192 987.478 685.84 989.415 785 986.985C841.225 985.608 897.785 983 954 983C1013.72 983 1074.6 980.109 1134 974.169C1147.71 972.798 1161.39 971.718 1175 969.414C1180.98 968.402 1187.89 967.946 1189 961L1140 953C1147.52 939.804 1157.45 929.018 1143 916.185C1140.54 914.007 1137.94 912.4 1135 911L1135 909C1143.96 906.667 1147.57 894.337 1141.75 887C1139.66 884.365 1134.13 879.826 1133 885L1132 885L1131 881C1123.28 882.503 1116.96 885.379 1116 894C1108.8 884.266 1113 868.514 1113 857C1124.71 854.878 1129.96 839.311 1119.96 831.43C1115.08 827.59 1107.6 826.505 1107 834L1106 834L1105 830C1084.65 839.598 1107.87 853.953 1108 865C1102.02 859.42 1095.66 857.313 1088 861L1089 864C1082 862.987 1080.07 871.368 1081.8 877C1085.52 889.035 1098.32 889.421 1107 883C1107.7 899.234 1120.61 907.641 1133 916C1126.87 918.093 1122.92 920.566 1121 927L1126 931L1120 930C1120.94 940.708 1127.89 944.971 1138 945C1130.61 957.603 1100.64 950.777 1088 949.286C1049.71 944.767 1010.45 946.723 972 944.089C961.974 943.403 951.998 944.631 942.015 943.031C932.796 941.553 931.166 928.887 924.61 923.742C920.725 920.693 913.365 921.71 909 923L900 909C916.946 915.176 930.749 905.416 933 888L921 890C923.743 887.611 929.303 884.584 930.183 880.829C932.664 870.243 914.999 866.019 908 866L908 865C932.364 855.765 952 835.708 952 809L953 809C963.047 828.154 992.875 819.126 994.823 799C995.686 790.074 990.67 776.172 981 785C986.746 766.681 956.668 774.959 952 787L951 787C951 782.839 949.695 775.937 952.028 772.302C954.505 768.442 961.05 767.321 964.319 763.699C973.41 753.628 972.076 733.799 958 729L955 736L954 736L954 726C944.15 726 935.016 726.137 928.649 735.015C918.289 749.461 928.717 770.113 946 771z"/>
<path style="fill:#f9f9fa; stroke:none;" d="M499 729C490.207 745.51 483.213 765.787 479 784L536 793L514.421 756L499 729M753 729L717 792C735.5 791.206 757.451 787.943 775 782L755 729L753 729z"/>
<path style="fill:#0101bc; stroke:none;" d="M964 763L965 764L964 763z"/>
<path style="fill:#040405; stroke:none;" d="M366 768C360.635 775.041 354.199 780.564 346 784L346 786C383.677 798.746 431.058 823.676 415.481 871C409.603 888.856 398.07 904.126 392.344 922C391.053 926.031 387.171 936.585 390.042 940.397C392.364 943.478 400.614 942.016 404 941.999C418.288 941.93 432.642 941 447 941C437.535 913.022 433.351 886.581 436.17 857C437.92 838.635 444.213 820.289 445 802C416.242 797.753 391.622 779.977 366 768z"/>
<path style="fill:#0101bc; stroke:none;" d="M953 783L954 784L953 783M992 786L993 787L992 786z"/>
<path style="fill:#f9f9fa; stroke:none;" d="M808 801L811 816L812 816L817 799L808 801M646 888C665.913 902.027 681.925 920.319 704 931.742C721.36 940.724 748.575 954.771 768 943.633C778.451 937.642 783.794 925.168 786.626 914C792.652 890.238 791.968 865.132 788.718 841C787.676 833.271 787.569 815.443 782.062 809.618C778.219 805.552 759.284 812.365 754 813.247C741.708 815.299 729.395 817.502 717 818.834C711.472 819.428 702.797 818.581 698.093 821.742C690.792 826.649 685.382 837.996 680.127 845C669.807 858.754 653.165 872.545 646 888M472 809C465.635 825.966 464.145 846.072 462.91 864C461.311 887.229 459.674 927.19 482.001 942.147C491.918 948.79 505.028 947.512 516 944.87C540.497 938.969 563.395 925.597 583 909.996C589.733 904.638 603.932 896.395 606.824 888C608.573 882.924 598.991 875.426 595.95 872C585.718 860.473 575.878 848.411 566.735 836C563.445 831.535 559.432 823.031 553.826 821.303C544.629 818.469 533.541 818.973 524 817.718C506.551 815.424 489.287 812.257 472 809z"/>
<path style="fill:#0101bc; stroke:none;" d="M990 810L991 811L990 810z"/>
<path style="fill:#f9f9fa; stroke:none;" d="M590 823C599.295 839.157 613.994 854.72 627 868L628 868L664 823L590 823z"/>
<path style="fill:#040405; stroke:none;" d="M119 855L120 856L119 855M1089 864L1090 865L1089 864z"/>
<path style="fill:#0101bc; stroke:none;" d="M922 869L923 870L922 869M928 883L929 884L928 883M925 889L926 890L925 889z"/>
<path style="fill:#040405; stroke:none;" d="M920 890L921 891L920 890M627 907L588 939L588 940L667 940L667 939L627 907M900 909L901 910L900 909z"/>
<path style="fill:#0101bc; stroke:none;" d="M901 909L902 910L901 909z"/>
<path style="fill:#040405; stroke:none;" d="M156.667 922.333L157.333 922.667L156.667 922.333M1126.67 931.333L1127.33 931.667L1126.67 931.333z"/>
<path style="fill:#53c1df; stroke:none;" d="M376 942L376 943L387 943L376 942z"/>
<path style="fill:#0101bc; stroke:none;" d="M293 944L294 945L293 944M976 944L977 945L976 944M264 945L265 946L264 945M1005 945L1006 946L1005 945z"/>
<path style="fill:#6760e0; stroke:none;" d="M90 971L91 972L90 971M93.6667 971.333L94.3333 971.667L93.6667 971.333M1175.67 971.333L1176.33 971.667L1175.67 971.333M1179 971L1180 972L1179 971M88 972L89 973L88 972M1181 972L1182 973L1181 972M84 979L85 980L84 979M1185 979L1186 980L1185 979M86 980L87 981L86 980M1183 980L1184 981L1183 980M98 982L99 983L98 982M1171 982L1172 983L1171 982M105 983L106 984L105 983M1164 983L1165 984L1164 983M109.667 984.333L110.333 984.667L109.667 984.333M113 984L114 985L113 984M1156 984L1157 985L1156 984M1159.67 984.333L1160.33 984.667L1159.67 984.333M127.667 986.333L128.333 986.667L127.667 986.333M1137 986L1138 987L1137 986M1141.67 986.333L1142.33 986.667L1141.67 986.333M139 987L140 988L139 987M146 987L147 988L146 987M1123 987L1124 988L1123 987M153.667 988.333L154.333 988.667L153.667 988.333M157 988L158 989L157 988M160 988L161 989L160 988M1109 988L1110 989L1109 988M1112 988L1113 989L1112 988M1115.67 988.333L1116.33 988.667L1115.67 988.333M165 989L165 990L168 990L165 989M1102 989L1102 990L1105 990L1102 989M180.667 990.333L181.333 990.667L180.667 990.333M184.667 990.333L185.333 990.667L184.667 990.333M189 990L190 991L189 990M1080 990L1081 991L1080 990M1084.67 990.333L1085.33 990.667L1084.67 990.333M1088.67 990.333L1089.33 990.667L1088.67 990.333M201.667 991.333L202.333 991.667L201.667 991.333M207 991L208 992L207 991M1062 991L1063 992L1062 991M1067.67 991.333L1068.33 991.667L1067.67 991.333z"/>
<path style="fill:#0101bc; stroke:none;" d="M217 992L218 993L217 992z"/>
<path style="fill:#6760e0; stroke:none;" d="M219 992L220 993L219 992M222 992L223 993L222 992M227.667 992.333L228.333 992.667L227.667 992.333M1041.67 992.333L1042.33 992.667L1041.67 992.333M1047 992L1048 993L1047 992M1050 992L1051 993L1050 992z"/>
<path style="fill:#0101bc; stroke:none;" d="M1052 992L1053 993L1052 992z"/>
<path style="fill:#6760e0; stroke:none;" d="M241 993L242 994L241 993M243 993L244 994L243 993M245 993L246 994L245 993M249 993L250 994L249 993M1020 993L1021 994L1020 993M1024 993L1025 994L1024 993M1026 993L1027 994L1026 993M1028 993L1029 994L1028 993M268 994L268 995L271 995L268 994M277 994L278 995L277 994M992 994L993 995L992 994M999 994L999 995L1002 995L999 994M301 995L302 996L301 995M307 995L308 996L307 995M962 995L963 996L962 995M968 995L969 996L968 995M325 996L326 997L325 996M328 996L329 997L328 996M330 996L331 997L330 996M334 996L335 997L334 996M339 996L340 997L339 996M341 996L342 997L341 996M343 996L344 997L343 996M926 996L927 997L926 996M928 996L929 997L928 996M930 996L931 997L930 996M935 996L936 997L935 996M939 996L940 997L939 996M941 996L942 997L941 996M944 996L945 997L944 996M365 997L365 998L369 998L365 997M372.667 997.333L373.333 997.667L372.667 997.333M382 997L383 998L382 997M384.667 997.333L385.333 997.667L384.667 997.333M392 997L393 998L392 997M884.667 997.333L885.333 997.667L884.667 997.333M887 997L888 998L887 997M896.667 997.333L897.333 997.667L896.667 997.333M901 997L902 998L901 997M903.667 997.333L904.333 997.667L903.667 997.333M410 998L410 999L413 999L410 998M437.667 998.333L438.333 998.667L437.667 998.333M831.667 998.333L832.333 998.667L831.667 998.333M848 998L849 999L848 998M857 998L857 999L860 999L857 998z"/>
<path style="fill:#0101bc; stroke:none;" d="M475 999L476 1000L475 999z"/>
<path style="fill:#6760e0; stroke:none;" d="M477.667 999.333L478.333 999.667L477.667 999.333M482 999L483 1000L482 999M486 999L487 1000L486 999M492 999L493 1000L492 999M494 999L495 1000L494 999M497.667 999.333L498.333 999.667L497.667 999.333M509 999L510 1000L509 999M511 999L512 1000L511 999M514 999L515 1000L514 999M518.667 999.333L519.333 999.667L518.667 999.333M535 999L536 1000L535 999M537 999L538 1000L537 999M732 999L733 1000L732 999M734 999L735 1000L734 999M750.667 999.333L751.333 999.667L750.667 999.333M755 999L756 1000L755 999M758 999L759 1000L758 999M760 999L761 1000L760 999M771.667 999.333L772.333 999.667L771.667 999.333M775 999L776 1000L775 999M777 999L778 1000L777 999M783 999L784 1000L783 999M787 999L788 1000L787 999M791.667 999.333L792.333 999.667L791.667 999.333z"/>
<path style="fill:#0101bc; stroke:none;" d="M794 999L795 1000L794 999z"/>
</svg>
